<svg width="6" height="8" viewBox="0 0 6 8" fill="none" xmlns="http://www.w3.org/2000/svg">
<g id="Frame" clip-path="url(#clip0_2_697)">
<path id="Vector" d="M2.67046 4.33487C3.06445 4.25329 3.47609 4.07453 3.86442 3.7942C4.98101 2.9865 5.47658 1.66026 4.97018 0.830497C4.41958 -0.072096 2.91342 -0.0114085 1.75601 1.0158C0.649217 1.97143 0.413086 2.96995 0.413086 4.01936C0.413086 4.76086 0.650251 6.08488 2.09903 7.23471C2.78308 6.70617 3.59857 6.27136 4.52426 5.95696L4.53654 5.95248C3.82525 5.65607 2.89811 5.07105 2.67046 4.33487ZM2.49185 1.78267C2.49185 1.47261 2.73887 1.22331 3.04355 1.22331C3.34796 1.22331 3.59526 1.47379 3.59526 1.78385C3.59526 2.0939 3.34796 2.34321 3.04355 2.34321C2.73894 2.34321 2.49185 2.09273 2.49185 1.78267Z" fill="#5D5DF9"/>
</g>
<defs>
<clipPath id="clip0_2_697">
<rect width="4.75568" height="7.03818" fill="white" transform="translate(0.413086 0.196533)"/>
</clipPath>
</defs>
</svg>
