<svg width="24" height="32" viewBox="0 0 24 32" fill="none" xmlns="http://www.w3.org/2000/svg">
<g id="Frame" clip-path="url(#clip0_2_711)">
<path id="Vector" d="M23.5529 4.03713L12.2232 0.0380625C12.0787 -0.0126875 11.9212 -0.0126875 11.7767 0.0380625L0.447125 4.03713C0.179625 4.1315 0 4.38469 0 4.66913V12.6672C0 23.0196 1.53531 26.8032 11.698 31.9277C11.793 31.9759 11.8965 32 12 32C12.1035 32 12.2069 31.9759 12.302 31.9277C22.4647 26.8033 24 23.0197 24 12.6673V4.66913C24 4.38469 23.8204 4.1315 23.5529 4.03713ZM18.6667 18C18.6667 18.3685 18.3685 18.6667 18 18.6667H14.6667V22C14.6667 22.3685 14.3685 22.6667 14 22.6667H10C9.6315 22.6667 9.33331 22.3685 9.33331 22V18.6667H6C5.6315 18.6667 5.33331 18.3685 5.33331 18V14C5.33331 13.6315 5.6315 13.3333 6 13.3333H9.33331V10C9.33331 9.6315 9.6315 9.33331 10 9.33331H14C14.3685 9.33331 14.6667 9.6315 14.6667 10V13.3333H18C18.3685 13.3333 18.6667 13.6315 18.6667 14V18Z" fill="#5D5DF9"/>
</g>
<defs>
<clipPath id="clip0_2_711">
<rect width="24" height="32" fill="white"/>
</clipPath>
</defs>
</svg>
